<svg width="74" height="72" viewBox="0 0 74 72" fill="none" xmlns="http://www.w3.org/2000/svg">
<path d="M69.1588 53.9542H21.3647L23.7645 49.2737L63.6368 49.2044C64.985 49.2044 66.1405 48.2821 66.3811 47.0064L71.9031 17.4089C72.0479 16.6327 71.8307 15.8334 71.3014 15.2262C71.0392 14.9274 70.7134 14.6867 70.3446 14.5208C69.9757 14.355 69.5736 14.2678 69.1666 14.2655L18.4433 14.1041L18.0099 12.152C17.737 10.9069 16.5653 10 15.233 10H2.83311C2.08171 10 1.36113 10.2858 0.829767 10.7946C0.298504 11.3034 0 11.9935 0 12.713C0 13.4326 0.298504 14.1226 0.829767 14.6314C1.36113 15.1403 2.08171 15.4261 2.83311 15.4261H12.9376L14.8317 24.0493L19.4947 45.6691L13.4914 55.0532C13.1796 55.4562 12.9919 55.9346 12.9493 56.4344C12.9067 56.9342 13.0111 57.4355 13.2507 57.8815C13.7322 58.7961 14.7033 59.3726 15.7788 59.3726H20.8189C19.7445 60.7392 19.1641 62.4039 19.1657 64.1146C19.1657 68.4646 22.8575 72 27.4002 72C31.943 72 35.6344 68.4646 35.6344 64.1146C35.6344 62.4007 35.0405 60.7329 33.981 59.3726H46.9113C45.836 60.7392 45.2559 62.4039 45.2578 64.1146C45.2578 68.4646 48.9493 72 53.4919 72C58.0345 72 61.727 68.4646 61.727 64.1146C61.727 62.4007 61.1331 60.7329 60.0735 59.3726H69.1666C70.7232 59.3726 72 58.1582 72 56.6595C71.9951 55.9407 71.6938 55.2528 71.1615 54.7461C70.6293 54.2392 69.9092 53.9546 69.1588 53.9542ZM19.6232 19.4534L65.8362 19.5993L61.3092 43.8706L25.0084 43.9321L19.6232 19.4534ZM27.4002 66.5432C26.0036 66.5432 24.864 65.4519 24.864 64.1146C24.864 62.7772 26.0036 61.6859 27.4002 61.6859C28.7966 61.6859 29.9363 62.7772 29.9363 64.1146C29.9363 64.7587 29.6691 65.3765 29.1934 65.8319C28.7178 66.2874 28.0728 66.5432 27.4002 66.5432ZM53.4919 66.5432C52.0958 66.5432 50.9559 65.4519 50.9559 64.1146C50.9559 62.7772 52.0958 61.6859 53.4919 61.6859C54.8881 61.6859 56.0279 62.7772 56.0279 64.1146C56.0279 64.7587 55.7608 65.3765 55.2853 65.8319C54.8098 66.2874 54.165 66.5432 53.4919 66.5432Z" fill="black"/>
<path d="M28.1473 7.67542C28.0599 8.88887 27.613 9.84408 26.8064 10.5411C26.0049 11.2382 24.9466 11.5868 23.6314 11.5868C22.1929 11.5868 21.0601 11.1014 20.233 10.1306C19.411 9.15471 19 7.81738 19 6.11864V5.42935C19 4.34502 19.1901 3.3898 19.5703 2.56363C19.9504 1.73745 20.4924 1.10495 21.1963 0.66605C21.9052 0.221991 22.7272 0 23.6623 0C24.9569 0 25.9998 0.348491 26.791 1.04555C27.5821 1.74261 28.0393 2.72114 28.1627 3.98098H25.8508C25.7943 3.25291 25.5914 2.72629 25.242 2.40096C24.8978 2.07056 24.3712 1.90527 23.6623 1.90527C22.8916 1.90527 22.3137 2.18413 21.9284 2.74176C21.5482 3.29423 21.353 4.15396 21.3427 5.32093V6.17288C21.3427 7.39141 21.5251 8.28214 21.8898 8.84493C22.2597 9.40779 22.8403 9.68919 23.6314 9.68919C24.3455 9.68919 24.8773 9.52652 25.2266 9.20119C25.5811 8.87078 25.784 8.36217 25.8354 7.67542H28.1473ZM29.1722 7.16426C29.1722 6.33293 29.3314 5.59201 29.65 4.94135C29.9685 4.29077 30.4257 3.78739 31.0217 3.43104C31.6228 3.07478 32.3189 2.89665 33.11 2.89665C34.2352 2.89665 35.1522 3.2426 35.8611 3.93451C36.5753 4.62641 36.9735 5.56616 37.0556 6.75375L37.0711 7.32693C37.0711 8.61263 36.714 9.64525 35.9999 10.4249C35.2858 11.1995 34.3277 11.5868 33.1255 11.5868C31.9233 11.5868 30.9626 11.1995 30.2433 10.4249C29.5293 9.6504 29.1722 8.59708 29.1722 7.26491V7.16426ZM31.3993 7.32693C31.3993 8.12209 31.5483 8.73136 31.8463 9.15471C32.1442 9.573 32.5706 9.78214 33.1255 9.78214C33.6649 9.78214 34.0862 9.57553 34.3893 9.16249C34.6924 8.74428 34.844 8.07815 34.844 7.16426C34.844 6.38456 34.6924 5.78046 34.3893 5.35186C34.0862 4.92335 33.6597 4.70905 33.11 4.70905C32.5655 4.70905 32.1442 4.92335 31.8463 5.35186C31.5483 5.7753 31.3993 6.43365 31.3993 7.32693ZM40.5311 3.05154L40.6005 3.98876C41.1913 3.26069 41.9902 2.89665 42.9971 2.89665C44.0709 2.89665 44.8081 3.32263 45.2088 4.17458C45.7944 3.32263 46.6293 2.89665 47.7133 2.89665C48.6175 2.89665 49.2905 3.16258 49.7324 3.69443C50.1742 4.22105 50.3951 5.01622 50.3951 6.07993V11.4318H48.1603V6.0877C48.1603 5.61263 48.0678 5.26668 47.8828 5.04985C47.6979 4.82778 47.3717 4.71674 46.9042 4.71674C46.2363 4.71674 45.7739 5.03692 45.5171 5.67719L45.5247 11.4318H43.2977V6.0954C43.2977 5.61002 43.2026 5.25891 43.0125 5.04207C42.8225 4.82524 42.4988 4.71674 42.0416 4.71674C41.4096 4.71674 40.9524 4.98014 40.6699 5.50676V11.4318H38.4427V3.05154H40.5311ZM59.6194 7.31916C59.6194 8.61001 59.3266 9.64525 58.7409 10.4249C58.1604 11.1995 57.3743 11.5868 56.3828 11.5868C55.5403 11.5868 54.8596 11.2924 54.3407 10.7038V14.6538H52.1136V3.05154H54.1788L54.2559 3.87257C54.7953 3.22198 55.4991 2.89665 56.3674 2.89665C57.3949 2.89665 58.1937 3.27877 58.764 4.04292C59.3343 4.80716 59.6194 5.86048 59.6194 7.20297V7.31916ZM57.3923 7.15649C57.3923 6.37679 57.2536 5.7753 56.9762 5.35186C56.7039 4.9285 56.3058 4.71674 55.7817 4.71674C55.0831 4.71674 54.6026 4.98529 54.3407 5.5223V8.95335C54.613 9.5059 55.0984 9.78214 55.7971 9.78214C56.8606 9.78214 57.3923 8.90687 57.3923 7.15649ZM65.6919 5.15049C65.3888 5.10917 65.1216 5.08855 64.8905 5.08855C64.048 5.08855 63.4957 5.3751 63.2336 5.94828V11.4318H61.0065V3.05154H63.1103L63.172 4.0507C63.6189 3.28131 64.238 2.89665 65.0291 2.89665C65.2757 2.89665 65.507 2.9302 65.7227 2.99738L65.6919 5.15049ZM71.3713 11.4318C71.2686 11.2304 71.1941 10.98 71.1479 10.6806C70.6085 11.2847 69.9072 11.5868 69.0441 11.5868C68.2273 11.5868 67.5491 11.3492 67.0097 10.8742C66.4754 10.3992 66.2082 9.80014 66.2082 9.07731C66.2082 8.18919 66.5345 7.5076 67.1869 7.03261C67.8445 6.55754 68.7924 6.31746 70.0305 6.31231H71.0555V5.83209C71.0555 5.44481 70.9552 5.13503 70.7549 4.90265C70.5597 4.67027 70.2488 4.55416 69.8225 4.55416C69.4474 4.55416 69.152 4.64449 68.9362 4.82524C68.7256 5.00591 68.6202 5.25375 68.6202 5.56878H66.3932C66.3932 5.0834 66.5422 4.63418 66.8402 4.22106C67.1381 3.80801 67.5594 3.48529 68.1039 3.25291C68.6485 3.01546 69.2599 2.89665 69.938 2.89665C70.9655 2.89665 71.7798 3.15742 72.3809 3.67889C72.9871 4.19528 73.2902 4.92335 73.2902 5.8631V9.49551C73.2954 10.2907 73.4058 10.8922 73.6216 11.3001V11.4318H71.3713ZM69.5296 9.87501C69.8584 9.87501 70.1615 9.80276 70.4389 9.65818C70.7164 9.50844 70.9219 9.30969 71.0555 9.06184V7.62125H70.2232C69.1083 7.62125 68.515 8.00844 68.443 8.78299L68.4353 8.91464C68.4353 9.1935 68.5329 9.42326 68.7281 9.60401C68.9233 9.78468 69.1905 9.87501 69.5296 9.87501Z" fill="black"/>
<path d="M28.233 30.1815L30.1087 29.4988L32.4142 35.8332C32.6262 36.4155 32.6845 36.9778 32.5893 37.5201C32.4966 38.0568 32.2611 38.5316 31.8827 38.9445C31.5043 39.3574 31.0212 39.6708 30.4334 39.8847C29.4705 40.2352 28.631 40.2632 27.9149 39.9687C27.1973 39.6701 26.6745 39.0704 26.3467 38.1697L28.2349 37.4824C28.3981 37.9307 28.6123 38.2275 28.8777 38.3729C29.1431 38.5183 29.4779 38.5174 29.8822 38.3702C30.2407 38.2398 30.4813 38.0122 30.6039 37.6877C30.7265 37.3632 30.7047 36.9725 30.5385 36.5159L28.233 30.1815ZM38.7271 35.9409C38.479 36.6479 37.9616 37.1447 37.1734 37.4315C36.4486 37.6953 35.8179 37.6877 35.282 37.4084C34.7498 37.1276 34.333 36.5842 34.0304 35.7787L32.4088 31.3233L34.2156 30.6656L35.8144 35.0582C36.0721 35.7662 36.5217 36.0035 37.1639 35.7698C37.7766 35.5468 38.1195 35.18 38.1932 34.6693L36.4411 29.8556L38.2543 29.1956L40.7291 35.9951L39.0286 36.614L38.7271 35.9409ZM41.2808 28.0941L41.6231 28.8591C41.8854 28.0757 42.4228 27.5361 43.2359 27.2402C43.953 26.9792 44.5633 26.9966 45.0675 27.2923C45.5718 27.5879 45.9813 28.1553 46.2961 28.9943L47.8949 33.3869L46.0881 34.0446L44.5053 29.696C44.365 29.3105 44.1798 29.0625 43.9508 28.9513C43.7196 28.8361 43.411 28.8488 43.023 28.9901C42.5146 29.1751 42.2123 29.5318 42.1167 30.06L43.8619 34.8548L42.0551 35.5124L39.5803 28.713L41.2808 28.0941ZM48.3504 23.628L48.9588 25.2995L50.1157 24.8784L50.6006 26.2107L49.4437 26.6318L50.6788 30.0252C50.7703 30.2766 50.8839 30.4392 51.0196 30.5132C51.1546 30.5874 51.3582 30.575 51.629 30.4764C51.8294 30.4035 52.0008 30.3245 52.1444 30.239L52.6453 31.6152C52.3309 31.853 51.9858 32.0403 51.6106 32.1769C50.3435 32.638 49.4634 32.2301 48.9703 30.9531L47.6369 27.2894L46.649 27.649L46.1641 26.3167L47.152 25.9572L46.5436 24.2856L48.3504 23.628ZM51.8681 28.0195C51.6226 27.3451 51.5325 26.697 51.599 26.075C51.6655 25.453 51.8876 24.9096 52.2658 24.4446C52.6484 23.978 53.1605 23.6279 53.8027 23.3942C54.7157 23.0619 55.5619 23.0718 56.3411 23.4239C57.1249 23.7744 57.7257 24.4192 58.143 25.3585L58.3244 25.8191C58.7041 26.8622 58.7197 27.8055 58.3705 28.649C58.0198 29.4882 57.3569 30.0854 56.3811 30.4405C55.406 30.7954 54.5118 30.765 53.6998 30.349C52.8917 29.9314 52.2912 29.1821 51.8978 28.1013L51.8681 28.0195ZM53.7229 27.4939C53.9577 28.1391 54.2587 28.5894 54.6251 28.8451C54.9906 29.0963 55.3981 29.1401 55.8482 28.9763C56.2861 28.8169 56.5671 28.5249 56.6909 28.1003C56.8133 27.6714 56.7395 27.0863 56.4696 26.3447C56.2394 25.7122 55.938 25.2667 55.5656 25.0085C55.1932 24.7503 54.7835 24.7025 54.3379 24.8647C53.8961 25.0255 53.6175 25.3238 53.5021 25.7596C53.3857 26.1909 53.4591 26.7691 53.7229 27.4939Z" fill="black"/>
</svg>
